<svg width="21" height="21" viewBox="0 0 21 21" fill="none" xmlns="http://www.w3.org/2000/svg">
<g clip-path="url(#clip0_813_2695)">
<path d="M7.81223 18.4036C8.39984 18.9223 9.17171 19.237 10.0171 19.237C10.8625 19.237 11.6343 18.9223 12.2219 18.4036M15.0171 7.57031C15.0171 6.24423 14.4903 4.97246 13.5526 4.03478C12.6149 3.0971 11.3432 2.57031 10.0171 2.57031C8.691 2.57031 7.41923 3.0971 6.48155 4.03478C5.54387 4.97246 5.01709 6.24423 5.01709 7.57031C5.01709 10.1455 4.36748 11.9086 3.64181 13.0748C3.02969 14.0585 2.72363 14.5504 2.73486 14.6876C2.74728 14.8395 2.77947 14.8975 2.9019 14.9883C3.01247 15.0703 3.51091 15.0703 4.5078 15.0703H15.5264C16.5233 15.0703 17.0217 15.0703 17.1323 14.9883C17.2547 14.8975 17.2869 14.8395 17.2993 14.6876C17.3105 14.5504 17.0045 14.0585 16.3924 13.0748C15.6667 11.9086 15.0171 10.1455 15.0171 7.57031Z" stroke="#667085" stroke-width="1.66667" stroke-linecap="round" stroke-linejoin="round"/>
</g>
<defs>
<clipPath id="clip0_813_2695">
<rect width="20" height="20" fill="white" transform="translate(0.0170898 0.90332)"/>
</clipPath>
</defs>
</svg>
