<svg width="24" height="25" viewBox="0 0 24 25" fill="none" xmlns="http://www.w3.org/2000/svg">
<path opacity="0.4" d="M12 22.0137C17.5228 22.0137 22 17.5365 22 12.0137C22 6.49082 17.5228 2.01367 12 2.01367C6.47715 2.01367 2 6.49082 2 12.0137C2 17.5365 6.47715 22.0137 12 22.0137Z" fill="#292D32"/>
<path d="M12 13.7637C12.41 13.7637 12.75 13.4237 12.75 13.0137V8.01367C12.75 7.60367 12.41 7.26367 12 7.26367C11.59 7.26367 11.25 7.60367 11.25 8.01367V13.0137C11.25 13.4237 11.59 13.7637 12 13.7637Z" fill="#292D32"/>
<path d="M12.92 15.6336C12.87 15.5136 12.8 15.4036 12.71 15.3036C12.61 15.2136 12.5 15.1436 12.38 15.0936C12.14 14.9936 11.86 14.9936 11.62 15.0936C11.5 15.1436 11.39 15.2136 11.29 15.3036C11.2 15.4036 11.13 15.5136 11.08 15.6336C11.03 15.7536 11 15.8836 11 16.0136C11 16.1436 11.03 16.2736 11.08 16.3936C11.13 16.5236 11.2 16.6236 11.29 16.7236C11.39 16.8136 11.5 16.8836 11.62 16.9336C11.74 16.9836 11.87 17.0136 12 17.0136C12.13 17.0136 12.26 16.9836 12.38 16.9336C12.5 16.8836 12.61 16.8136 12.71 16.7236C12.8 16.6236 12.87 16.5236 12.92 16.3936C12.97 16.2736 13 16.1436 13 16.0136C13 15.8836 12.97 15.7536 12.92 15.6336Z" fill="#292D32"/>
</svg>
