<svg width="72" height="50" viewBox="0 0 72 50" fill="none" xmlns="http://www.w3.org/2000/svg">
<path d="M43.6308 30.295H26.2057C24.256 30.295 22.6761 28.7326 22.6761 26.8043V26.7153C22.6761 24.787 24.256 23.2246 26.2057 23.2246H43.6308C45.5805 23.2246 47.1603 24.787 47.1603 26.7153V26.8043C47.1603 28.7326 45.5805 30.295 43.6308 30.295Z" fill="#E03826"/>
<path d="M43.6308 38.1739H26.2057C24.256 38.1739 22.6761 36.6115 22.6761 34.6832V34.5942C22.6761 32.668 24.256 31.1035 26.2057 31.1035H43.6308C45.5805 31.1035 47.1603 32.668 47.1603 34.5942V34.6832C47.1603 36.6115 45.5805 38.1739 43.6308 38.1739Z" fill="#E03826"/>
<path d="M43.406 18.3332L27.8285 25.7816C26.0443 26.6346 23.8983 25.9009 23.0359 24.1444C22.1714 22.3879 22.9194 20.2716 24.7036 19.4187L40.2811 11.9723C42.0653 11.1194 44.2112 11.8511 45.0737 13.6075C45.9361 15.364 45.1902 17.4803 43.406 18.3332Z" fill="#E03826"/>
<path d="M53.6881 35.6251C53.6881 37.0339 52.5334 38.1759 51.1089 38.1759C49.6844 38.1759 48.5297 37.0339 48.5297 35.6251C48.5297 34.2162 49.6844 33.0742 51.1089 33.0742C52.5334 33.0742 53.6881 34.2162 53.6881 35.6251Z" fill="#E03826"/>
</svg>
