<svg width="396" height="66" viewBox="0 0 396 66" fill="none" xmlns="http://www.w3.org/2000/svg">
<mask id="mask0_872_3098" style="mask-type:alpha" maskUnits="userSpaceOnUse" x="1" y="1" width="394" height="64">
<rect width="393" height="64" transform="translate(1.66663 1)" fill="url(#paint0_linear_872_3098)"/>
</mask>
<g mask="url(#mask0_872_3098)">
<path d="M15.8087 57.2759L1.66663 65H394.667V1L389.084 12.0345H381.641C379.656 13.8736 375.538 17.5517 374.942 17.5517C374.347 17.5517 370.476 19.7586 368.616 20.8621L352.613 24.1724L343.309 28.5862L328.422 24.1724L320.607 20.8621L309.442 28.5862H297.905L288.229 20.8621C284.508 19.7586 276.915 17.5517 276.32 17.5517C275.725 17.5517 270.862 15.3448 268.505 14.2414H262.55L248.408 17.5517L236.127 20.8621L230.544 28.5862L213.797 31.8966L205.238 35.2069L195.562 40.7241L186.258 47.9655H182.164L170.999 48.6552L160.206 40.7241L150.902 35.2069H145.32L135.644 31.8966L121.874 35.2069H108.848L95.8229 40.7241L82.7973 47.3448L73.1212 53.9655L62.7007 57.2759L48.5587 53.9655L37.3939 57.2759L26.2291 60.5862L15.8087 57.2759Z" fill="#ECFDF3"/>
</g>
<path d="M1.66663 65L15.8087 57.2759L26.2291 60.5862L37.3939 57.2759L48.5587 53.9655L62.7007 57.2759L73.1212 53.9655L82.7973 47.3448L95.8229 40.7241L108.848 35.2069H121.874L135.644 31.8966L145.32 35.2069H150.902L160.206 40.7241L170.999 48.6552L182.164 47.9655H186.258L195.562 40.7241L205.238 35.2069L213.797 31.8966L230.544 28.5862L236.127 20.8621L248.408 17.5517L262.55 14.2414H268.505C270.862 15.3448 275.725 17.5517 276.32 17.5517C276.915 17.5517 284.508 19.7586 288.229 20.8621L297.905 28.5862H309.442L320.607 20.8621L328.422 24.1724L343.309 28.5862L352.613 24.1724L368.616 20.8621C370.476 19.7586 374.347 17.5517 374.942 17.5517C375.538 17.5517 379.656 13.8736 381.641 12.0345H389.084L394.667 1" stroke="#17B26A" stroke-width="2" stroke-linecap="round" stroke-linejoin="round"/>
<g opacity="0.2">
<rect x="230.062" y="5" width="65.6042" height="20" rx="10" stroke="#17B26A" stroke-width="2"/>
</g>
<rect x="245.427" y="10" width="34.875" height="10" rx="5" fill="white"/>
<rect x="245.427" y="10" width="34.875" height="10" rx="5" stroke="#17B26A" stroke-width="2"/>
<defs>
<linearGradient id="paint0_linear_872_3098" x1="196.5" y1="0" x2="196.5" y2="64" gradientUnits="userSpaceOnUse">
<stop/>
<stop offset="1" stop-opacity="0"/>
</linearGradient>
</defs>
</svg>
