<svg width="16" height="17" viewBox="0 0 16 17" fill="none" xmlns="http://www.w3.org/2000/svg">
<path opacity="0.4" d="M14.0533 5.73337V10.2933C14.0533 11.04 13.6533 11.7334 13.0067 12.1134L9.04666 14.4C8.39999 14.7734 7.59998 14.7734 6.94664 14.4L2.98664 12.1134C2.33998 11.74 1.93997 11.0467 1.93997 10.2933V5.73337C1.93997 4.9867 2.33998 4.29334 2.98664 3.91334L6.94664 1.62668C7.59331 1.25335 8.39333 1.25335 9.04666 1.62668L13.0067 3.91334C13.6533 4.29334 14.0533 4.98004 14.0533 5.73337Z" fill="#009933"/>
<path d="M8 9.18066C7.72667 9.18066 7.5 8.954 7.5 8.68066V5.18066C7.5 4.90733 7.72667 4.68066 8 4.68066C8.27333 4.68066 8.5 4.90733 8.5 5.18066V8.68066C8.5 8.954 8.27333 9.18066 8 9.18066Z" fill="#009933"/>
<path d="M8.00001 11.5133C7.91334 11.5133 7.82667 11.4932 7.74667 11.4599C7.66001 11.4266 7.59333 11.3799 7.52666 11.3199C7.46666 11.2533 7.42002 11.1799 7.38002 11.0999C7.34668 11.0199 7.33334 10.9333 7.33334 10.8466C7.33334 10.6733 7.4 10.4999 7.52666 10.3732C7.59333 10.3132 7.66001 10.2666 7.74667 10.2333C7.99334 10.1266 8.28669 10.1866 8.47336 10.3732C8.53336 10.4399 8.58 10.5066 8.61333 10.5932C8.64667 10.6732 8.66668 10.7599 8.66668 10.8466C8.66668 10.9333 8.64667 11.0199 8.61333 11.0999C8.58 11.1799 8.53336 11.2533 8.47336 11.3199C8.34669 11.4466 8.18001 11.5133 8.00001 11.5133Z" fill="#009933"/>
</svg>
